<?xml version="1.0" encoding="UTF-8" standalone="no"?><!-- Generator: Gravit.io --><svg xmlns="http://www.w3.org/2000/svg" xmlns:xlink="http://www.w3.org/1999/xlink" style="isolation:isolate" viewBox="0 0 32 32" width="32pt" height="32pt"><defs><clipPath id="_clipPath_ZGJWoo47XRQKCp0zfejndJtzaxJUreTK"><rect width="32" height="32"/></clipPath></defs><g clip-path="url(#_clipPath_ZGJWoo47XRQKCp0zfejndJtzaxJUreTK)"><radialGradient id="_rgradient_0" fx="0.5" fy="0.5" cx="0.5" cy="0.5" r="0.5" gradientTransform="matrix(32,0,0,32,0,0)" gradientUnits="userSpaceOnUse"><stop offset="37.5%" stop-opacity="1" style="stop-color:rgb(0,0,70)"/><stop offset="100%" stop-opacity="1" style="stop-color:rgb(28,181,224)"/></radialGradient><mask id="_mask_qElsgYJWu4jcxnAHgc5Uk1puFkqswRUh"><circle vector-effect="non-scaling-stroke" cx="16" cy="16" r="16" fill="white" stroke="none"/></mask><circle vector-effect="non-scaling-stroke" cx="16" cy="16" r="16" fill="url(#_rgradient_0)"/><circle vector-effect="non-scaling-stroke" cx="16" cy="16" r="16" fill="url(#_rgradient_0)" mask="url(#_mask_qElsgYJWu4jcxnAHgc5Uk1puFkqswRUh)" stroke-width="2" stroke="rgb(255,255,255)" stroke-linejoin="miter" stroke-linecap="square" stroke-miterlimit="3"/><path d=" M 8.725 6 C 8.534 6.036 8.397 6.205 8.4 6.4 L 8.4 25.6 C 8.4 25.82 8.58 26 8.8 26 L 23.2 26 C 23.42 26 23.6 25.82 23.6 25.6 L 23.6 6.4 C 23.6 6.18 23.42 6 23.2 6 L 8.725 6 Z  M 9.2 6.8 L 22.8 6.8 L 22.8 25.2 L 22 25.2 L 22 8 C 22 7.78 21.82 7.6 21.6 7.6 L 10.362 7.6 C 10.156 7.619 9.998 7.793 10 8 L 10 25.2 L 9.2 25.2 L 9.2 6.8 Z  M 10.8 8.4 L 21.2 8.4 L 21.2 25.2 L 10.8 25.2 L 10.8 8.4 Z  M 18.8 15.6 C 18.358 15.6 18 15.958 18 16.4 C 18 16.842 18.358 17.2 18.8 17.2 C 19.242 17.2 19.6 16.842 19.6 16.4 C 19.6 15.958 19.242 15.6 18.8 15.6 Z " fill="rgb(255,255,255)"/><circle vector-effect="non-scaling-stroke" cx="13.2" cy="16.400000000000006" r="0.8000000000000007" fill="rgb(255,255,255)"/><line x1="16" y1="8.4" x2="16" y2="25.2" vector-effect="non-scaling-stroke" stroke-width="1" stroke="rgb(255,255,255)" stroke-linejoin="miter" stroke-linecap="square" stroke-miterlimit="3"/></g></svg>